<mxfile host="Electron" modified="2023-12-28T02:57:48.955Z" agent="Mozilla/5.0 (X11; Linux x86_64) AppleWebKit/537.36 (KHTML, like Gecko) draw.io/22.1.11 Chrome/114.0.5735.289 Electron/25.9.8 Safari/537.36" etag="XndtSHh6H8cdvf3OwDak" version="22.1.11" type="device">
  <diagram name="Page-1" id="3ognbXSng7ltKSvOxRZD">
    <mxGraphModel dx="1050" dy="635" grid="1" gridSize="10" guides="1" tooltips="1" connect="1" arrows="1" fold="1" page="1" pageScale="1" pageWidth="827" pageHeight="1169" math="1" shadow="0">
      <root>
        <mxCell id="0" />
        <mxCell id="1" parent="0" />
        <mxCell id="d3XYJ0kTGgPDI1fNx5ZZ-6" value="&lt;span style=&quot;font-size: 16px;&quot;&gt;B&lt;/span&gt;" style="ellipse;whiteSpace=wrap;html=1;aspect=fixed;fillColor=#fff2cc;strokeColor=#d6b656;fontColor=#D79B00;strokeWidth=2;" parent="1" vertex="1">
          <mxGeometry x="40" y="160" width="40" height="40" as="geometry" />
        </mxCell>
        <mxCell id="d3XYJ0kTGgPDI1fNx5ZZ-8" value="&lt;font style=&quot;font-size: 16px;&quot;&gt;C&lt;/font&gt;" style="ellipse;whiteSpace=wrap;html=1;aspect=fixed;fillColor=#fff2cc;strokeColor=#d6b656;fontColor=#D79B00;strokeWidth=2;" parent="1" vertex="1">
          <mxGeometry x="280" y="160" width="40" height="40" as="geometry" />
        </mxCell>
        <mxCell id="d3XYJ0kTGgPDI1fNx5ZZ-21" style="edgeStyle=orthogonalEdgeStyle;rounded=0;orthogonalLoop=1;jettySize=auto;html=1;exitX=0;exitY=0.5;exitDx=0;exitDy=0;entryX=1;entryY=0.5;entryDx=0;entryDy=0;curved=1;fillColor=#ffe6cc;strokeColor=#D79B00;strokeWidth=2;" parent="1" source="d3XYJ0kTGgPDI1fNx5ZZ-20" target="d3XYJ0kTGgPDI1fNx5ZZ-6" edge="1">
          <mxGeometry relative="1" as="geometry" />
        </mxCell>
        <mxCell id="d3XYJ0kTGgPDI1fNx5ZZ-22" style="edgeStyle=orthogonalEdgeStyle;rounded=0;orthogonalLoop=1;jettySize=auto;html=1;exitX=1;exitY=0.5;exitDx=0;exitDy=0;entryX=0;entryY=0.5;entryDx=0;entryDy=0;curved=1;fillColor=#ffe6cc;strokeColor=#d79b00;strokeWidth=2;" parent="1" source="d3XYJ0kTGgPDI1fNx5ZZ-20" target="d3XYJ0kTGgPDI1fNx5ZZ-8" edge="1">
          <mxGeometry relative="1" as="geometry" />
        </mxCell>
        <mxCell id="d3XYJ0kTGgPDI1fNx5ZZ-20" value="&lt;font style=&quot;font-size: 16px;&quot;&gt;Q&lt;/font&gt;" style="ellipse;whiteSpace=wrap;html=1;aspect=fixed;fillColor=#ffe6cc;strokeColor=#d79b00;fontColor=#D79B00;strokeWidth=2;" parent="1" vertex="1">
          <mxGeometry x="160" y="160" width="40" height="40" as="geometry" />
        </mxCell>
        <mxCell id="d3XYJ0kTGgPDI1fNx5ZZ-23" value="&lt;font style=&quot;font-size: 16px;&quot;&gt;\(\pi_B&#39;\)&lt;/font&gt;" style="edgeLabel;html=1;align=center;verticalAlign=top;resizable=0;points=[];labelBackgroundColor=none;fontSize=10;fontColor=#D79B00;" parent="1" vertex="1" connectable="0">
          <mxGeometry x="119.99604275594868" y="140.00278078075394" as="geometry" />
        </mxCell>
        <mxCell id="d3XYJ0kTGgPDI1fNx5ZZ-24" value="&lt;font style=&quot;font-size: 16px;&quot;&gt;\(\pi_C&#39;\)&lt;/font&gt;" style="edgeLabel;html=1;align=center;verticalAlign=top;resizable=0;points=[];labelBackgroundColor=none;fontSize=10;fontColor=#D79B00;" parent="1" vertex="1" connectable="0">
          <mxGeometry x="239.99604275594868" y="140.00278078075394" as="geometry" />
        </mxCell>
        <mxCell id="kt64mStuYoiQwjbo65hI-5" style="edgeStyle=orthogonalEdgeStyle;curved=1;rounded=0;orthogonalLoop=1;jettySize=auto;html=1;exitX=0;exitY=1;exitDx=0;exitDy=0;entryX=0;entryY=0;entryDx=0;entryDy=0;fillColor=#dae8fc;strokeColor=#6c8ebf;strokeWidth=2;" edge="1" parent="1" source="ssYykq-qqlclmQmpV-xH-1" target="d3XYJ0kTGgPDI1fNx5ZZ-20">
          <mxGeometry relative="1" as="geometry">
            <Array as="points">
              <mxPoint x="140" y="74" />
              <mxPoint x="140" y="166" />
            </Array>
          </mxGeometry>
        </mxCell>
        <mxCell id="kt64mStuYoiQwjbo65hI-6" style="edgeStyle=orthogonalEdgeStyle;curved=1;rounded=0;orthogonalLoop=1;jettySize=auto;html=1;exitX=1;exitY=1;exitDx=0;exitDy=0;entryX=1;entryY=0;entryDx=0;entryDy=0;fillColor=#dae8fc;strokeColor=#6c8ebf;strokeWidth=2;" edge="1" parent="1" source="ssYykq-qqlclmQmpV-xH-1" target="d3XYJ0kTGgPDI1fNx5ZZ-20">
          <mxGeometry relative="1" as="geometry">
            <Array as="points">
              <mxPoint x="220" y="74" />
              <mxPoint x="220" y="166" />
            </Array>
          </mxGeometry>
        </mxCell>
        <mxCell id="ssYykq-qqlclmQmpV-xH-1" value="&lt;font style=&quot;font-size: 16px;&quot;&gt;X&lt;/font&gt;" style="ellipse;whiteSpace=wrap;html=1;aspect=fixed;fillColor=#dae8fc;strokeColor=#6c8ebf;strokeWidth=2;fontColor=#6C8EBF;" parent="1" vertex="1">
          <mxGeometry x="160" y="40" width="40" height="40" as="geometry" />
        </mxCell>
        <mxCell id="kt64mStuYoiQwjbo65hI-3" value="&lt;font style=&quot;font-size: 16px;&quot;&gt;\(f \cdot g\)&lt;/font&gt;" style="edgeLabel;html=1;align=center;verticalAlign=top;resizable=0;points=[];labelBackgroundColor=none;fontSize=10;fontColor=#6C8EBF;" vertex="1" connectable="0" parent="1">
          <mxGeometry x="109.99604275594868" y="100.00278078075394" as="geometry" />
        </mxCell>
        <mxCell id="kt64mStuYoiQwjbo65hI-4" value="&lt;font style=&quot;font-size: 16px;&quot;&gt;\(u_Q\)&lt;/font&gt;" style="edgeLabel;html=1;align=center;verticalAlign=top;resizable=0;points=[];labelBackgroundColor=none;fontSize=10;fontColor=#6C8EBF;" vertex="1" connectable="0" parent="1">
          <mxGeometry x="239.99604275594868" y="100.00278078075394" as="geometry" />
        </mxCell>
      </root>
    </mxGraphModel>
  </diagram>
</mxfile>
